<svg width="24" height="24" viewBox="0 0 24 24" fill="none" xmlns="http://www.w3.org/2000/svg">
<path d="M12.5524 12L16.8856 7.66686C17.0381 7.5143 17.0381 7.26696 16.8856 7.11442C16.733 6.96188 16.4857 6.96186 16.3331 7.11442L12 11.4476L7.66686 7.11442C7.5143 6.96186 7.26696 6.96186 7.11442 7.11442C6.96188 7.26698 6.96186 7.51432 7.11442 7.66686L11.4475 12L7.11442 16.3332C6.96186 16.4857 6.96186 16.7331 7.11442 16.8856C7.19069 16.9619 7.29067 17 7.39065 17C7.49063 17 7.59059 16.9619 7.66688 16.8856L12 12.5525L16.3331 16.8856C16.4094 16.9619 16.5094 17 16.6094 17C16.7093 17 16.8093 16.9619 16.8856 16.8856C17.0381 16.733 17.0381 16.4857 16.8856 16.3332L12.5524 12Z" fill="white"/>
</svg>
