<svg width="20" height="20" viewBox="0 0 20 20" fill="none" xmlns="http://www.w3.org/2000/svg">
<g clip-path="url(#clip0)">
<path d="M19.9261 9.76333C19.7686 9.53414 15.9835 4.16656 10.0001 4.16656C4.86587 4.16656 0.290803 9.50332 0.0982999 9.73083C-0.0325225 9.88583 -0.0325225 10.1133 0.0982999 10.2692C0.290803 10.4967 4.86587 15.8334 10.0001 15.8334C15.1344 15.8334 19.7094 10.4967 19.9019 10.2692C20.0228 10.1258 20.0336 9.91833 19.9261 9.76333ZM10.0001 15.0001C5.88425 15.0001 1.97083 11.075 0.976673 10C1.96919 8.92417 5.87843 4.99994 10.0001 4.99994C14.816 4.99994 18.2153 8.91917 19.0453 9.97751C18.0869 11.0183 14.151 15.0001 10.0001 15.0001Z" fill="white"/>
<path d="M10.0001 6.66656C8.16171 6.66656 6.66669 8.16159 6.66669 9.99994C6.66669 11.8383 8.16171 13.3333 10.0001 13.3333C11.8384 13.3333 13.3334 11.8383 13.3334 9.99994C13.3334 8.16159 11.8384 6.66656 10.0001 6.66656ZM10.0001 12.5C8.62172 12.5 7.50002 11.3783 7.50002 9.99998C7.50002 8.62163 8.62172 7.49994 10.0001 7.49994C11.3784 7.49994 12.5001 8.62163 12.5001 9.99998C12.5001 11.3783 11.3784 12.5 10.0001 12.5Z" fill="white"/>
</g>
<defs>
<clipPath id="clip0">
<rect width="20" height="20" fill="white"/>
</clipPath>
</defs>
</svg>
