<svg width="24" height="25" viewBox="0 0 24 25" fill="none" xmlns="http://www.w3.org/2000/svg">
<g clip-path="url(#clip0)">
<path d="M12.0004 6.52515C8.7058 6.52515 6.02539 9.20546 6.02539 12.5C6.02539 15.7946 8.7058 18.4749 12.0004 18.4749C15.2951 18.4749 17.9754 15.7946 17.9754 12.5C17.9754 9.20546 15.2951 6.52515 12.0004 6.52515ZM12.0004 17.0687C9.4812 17.0687 7.43164 15.0192 7.43164 12.5C7.43164 9.98087 9.4812 7.9314 12.0004 7.9314C14.5197 7.9314 16.5692 9.98087 16.5692 12.5C16.5692 15.0192 14.5197 17.0687 12.0004 17.0687Z" fill="#E6E8EC"/>
<path d="M17.6484 0.5H6.35156C2.8493 0.5 0 3.3493 0 6.85156V18.1484C0 21.6507 2.8493 24.5 6.35156 24.5H17.6484C21.1507 24.5 24 21.6507 24 18.1484V6.85156C24 3.3493 21.1507 0.5 17.6484 0.5ZM22.5938 18.1484C22.5938 20.8753 20.3753 23.0938 17.6484 23.0938H6.35156C3.6247 23.0938 1.40625 20.8753 1.40625 18.1484V6.85156C1.40625 4.1247 3.6247 1.90625 6.35156 1.90625H17.6484C20.3753 1.90625 22.5938 4.1247 22.5938 6.85156V18.1484Z" fill="#E6E8EC"/>
<path d="M18.6841 5.11249C18.4989 5.11249 18.318 5.18749 18.1872 5.31874C18.056 5.44952 17.981 5.63045 17.981 5.81561C17.981 6.00077 18.056 6.18217 18.1872 6.31295C18.318 6.44373 18.4989 6.51873 18.6841 6.51873C18.8693 6.51873 19.0506 6.44373 19.1814 6.31295C19.3122 6.18217 19.3872 6.00077 19.3872 5.81561C19.3872 5.63092 19.3122 5.44952 19.1814 5.31874C19.0506 5.18749 18.8692 5.11249 18.6841 5.11249Z" fill="#E6E8EC"/>
</g>
<defs>
<clipPath id="clip0">
<rect width="24" height="24" fill="white" transform="translate(0 0.5)"/>
</clipPath>
</defs>
</svg>
