<svg width="406" height="407" viewBox="0 0 406 407" fill="none" xmlns="http://www.w3.org/2000/svg">
<path d="M89.6682 106.893L112.779 127.457L114.998 125.048L91.7021 104.485L99.6522 95.4071L58.9779 59.8379L41.5986 79.6603L82.2729 115.23L89.6682 106.893Z" fill="white"/>
<path d="M112.778 84.8473L130.896 110.227L135.149 107.263L116.845 81.8832L125.35 75.7697L93.735 31.864L73.9521 46.3139L105.567 90.0343L112.778 84.8473Z" fill="white"/>
<path d="M139.955 68.3596L152.157 97.6302L158.628 94.8513L146.241 65.5808L154.191 62.2461L132.929 12.5975L112.407 21.4898L133.669 71.1384L139.955 68.3596Z" fill="white"/>
<path d="M169.907 57.9864L175.638 89.6651L184.143 87.9978L178.411 56.319L185.252 55.0223L175.084 2.03906L155.116 5.74418L165.285 58.9127L169.907 57.9864Z" fill="white"/>
<path d="M201.706 54.28L200.412 86.6998L210.95 87.0702L212.244 54.6505H217.051L218.715 0.555858L200.412 0L198.748 54.0948L201.706 54.28Z" fill="white"/>
<path d="M234.245 57.4317L225.925 89.296L237.943 92.4453L246.262 60.5812L248.665 61.322L262.347 8.89443L246.632 4.81876L232.766 57.0613L234.245 57.4317Z" fill="white"/>
<path d="M237.203 359.397L243.859 358.1L236.279 316.417L216.311 320.122L223.891 361.805L228.514 360.879L236.833 404.043L245.338 402.376L237.203 359.397Z" fill="white"/>
<path d="M109.449 319.567L130.895 294.742L121.467 286.591L100.02 311.416L98.9107 310.489L63.4136 351.246L75.6159 361.991L111.113 321.234L109.449 319.567Z" fill="white"/>
<path d="M85.2298 294.928L111.483 275.476L105.197 266.954L79.1286 286.221L77.2798 283.813L33.6479 315.676L44.3707 330.497L88.003 298.633L85.2298 294.928Z" fill="white"/>
<path d="M67.8533 265.842L97.064 252.874L93.5515 244.723L64.3403 257.691L62.4915 253.43L12.9434 274.735L20.8933 293.446L70.4414 272.141L67.8533 265.842Z" fill="white"/>
<path d="M58.7925 166.915L88.7432 174.696L89.483 171.547L59.5323 163.766L62.3055 153.021L10.1686 139.313L3.51318 164.878L55.6496 178.586L58.7925 166.915Z" fill="white"/>
<path d="M71.1787 134.311L98.5413 148.761L99.096 147.649L71.9185 133.014L78.2043 121.158L30.5047 95.7775L17.1934 120.972L64.8929 146.352L71.1787 134.311Z" fill="white"/>
<path d="M307.828 325.866L283.054 291.223L263.271 305.302L288.045 340.13L295.256 334.943L320.215 369.401L324.467 366.437L299.323 331.979L307.828 325.866Z" fill="white"/>
<path d="M277.691 345.688L261.052 306.414L240.53 315.12L256.984 354.395L263.271 351.801L280.279 391.446L286.75 388.667L269.556 349.022L277.691 345.688Z" fill="white"/>
<path d="M207.991 362.731L209.47 320.493L191.166 319.752L189.687 362.175H192.645L191.351 406.451L201.89 406.822L203.369 362.546L207.991 362.731Z" fill="white"/>
<path d="M171.2 359.211L182.108 318.27L166.393 314.194L155.485 354.95L156.964 355.321L145.686 398.671L157.703 401.821L168.982 358.656L171.2 359.211Z" fill="white"/>
<path d="M155.115 309.563L142.543 302.894L127.198 331.979L125.534 335.128L122.761 340.13L101.869 379.775L114.441 386.444L136.442 344.761L155.115 309.563Z" fill="white"/>
<path d="M88.3747 227.679L87.0806 220.825L56.0204 227.123L54.7264 220.454L1.66553 230.643L5.91789 252.689L58.9787 242.5L57.3145 233.793L88.3747 227.679Z" fill="white"/>
<path d="M85.6004 196.186L54.3555 195.445L54.7252 186.553L0.739798 184.886L0 209.339L53.9859 211.007L54.1705 200.447L85.4158 201.188L85.6004 196.186Z" fill="white"/>
<path d="M251.069 97.4447L263.641 104.114L278.987 75.0288L304.315 27.2326L291.743 20.5634L269.373 62.8019L251.069 97.4447Z" fill="white"/>
<path d="M301.358 79.1042L273.811 110.968L286.198 121.713L313.745 89.6637L311.897 88.1816L341.293 54.6502L331.863 46.3137L302.652 80.0305L301.358 79.1042Z" fill="white"/>
<path d="M326.5 103.373L292.482 128.382L303.205 143.203L337.223 118.008L334.635 114.303L370.317 88.3673L364.031 79.6602L328.349 105.781L326.5 103.373Z" fill="white"/>
<path d="M350.906 144.315L391.024 126.901L387.512 118.935L347.393 136.163L345.359 131.903L306.72 148.946L314.854 167.657L353.679 150.428L350.906 144.315Z" fill="white"/>
<path d="M362.367 185.442L360.704 176.92L403.041 168.769L401.747 162.099L359.224 170.066L357.93 163.396L316.332 171.733L320.584 193.778L362.367 185.442Z" fill="white"/>
<path d="M320.955 196.186L320.4 220.64L362.922 221.566L363.107 211.192L405.814 212.489L405.999 207.487L363.292 206.19L363.477 197.113L320.955 196.186Z" fill="white"/>
<path d="M320.399 221.196L313.744 246.761L300.987 271.03L283.423 290.852L315.593 319.011L322.988 310.674L354.788 338.463L356.821 336.054L325.021 308.266L332.971 299.188L303.021 272.697L338.518 291.593L344.804 279.551L381.965 299.374L382.704 298.077L345.543 278.255L351.829 266.398L316.332 247.502L354.972 257.506L358.115 245.835L398.974 256.579L399.714 253.43L358.855 242.685L361.628 231.941L320.399 221.196Z" fill="white"/>
</svg>
