<svg width="191" height="56" viewBox="0 0 191 56" fill="none" xmlns="http://www.w3.org/2000/svg">
<path d="M12.1896 14.4974L15.3313 17.2863L15.633 16.9597L12.4661 14.1708L13.5469 12.9396L8.0174 8.11554L5.65479 10.804L11.1842 15.6281L12.1896 14.4974Z" fill="white"/>
<path d="M15.3313 11.5074L17.7945 14.9496L18.3725 14.5476L15.8843 11.1054L17.0404 10.2763L12.7426 4.32153L10.0532 6.28131L14.3511 12.2109L15.3313 11.5074Z" fill="white"/>
<path d="M19.0262 9.2713L20.685 13.2411L21.5647 12.8642L19.8807 8.89442L20.9615 8.44215L18.0711 1.70856L15.2812 2.91457L18.1716 9.64818L19.0262 9.2713Z" fill="white"/>
<path d="M23.0981 7.86441L23.8772 12.1608L25.0334 11.9347L24.2542 7.63828L25.1842 7.46242L23.8019 0.27655L21.0874 0.779058L22.4698 7.99004L23.0981 7.86441Z" fill="white"/>
<path d="M27.4207 7.36174L27.2448 11.7587L28.6774 11.8089L28.8533 7.41198H29.5068L29.7329 0.0753883L27.2448 0L27.0186 7.33662L27.4207 7.36174Z" fill="white"/>
<path d="M31.8444 7.7892L30.7134 12.1108L32.3471 12.5379L33.4781 8.21635L33.8048 8.31683L35.6647 1.20633L33.5283 0.653564L31.6433 7.73896L31.8444 7.7892Z" fill="white"/>
<path d="M32.2464 48.7433L33.1512 48.5674L32.1207 42.9142L29.4062 43.4167L30.4368 49.0699L31.0651 48.9443L32.1961 54.7985L33.3523 54.5724L32.2464 48.7433Z" fill="white"/>
<path d="M14.8789 43.3413L17.7944 39.9745L16.5126 38.869L13.5971 42.2358L13.4462 42.1102L8.62061 47.6378L10.2794 49.0951L15.1051 43.5675L14.8789 43.3413Z" fill="white"/>
<path d="M11.5865 39.9996L15.1555 37.3615L14.3009 36.2057L10.7571 38.8187L10.5057 38.4921L4.57422 42.8137L6.03192 44.8237L11.9635 40.5021L11.5865 39.9996Z" fill="white"/>
<path d="M9.22398 36.0549L13.195 34.2961L12.7175 33.1906L8.74641 34.9494L8.49507 34.3715L1.75928 37.261L2.84003 39.7987L9.57583 36.9092L9.22398 36.0549Z" fill="white"/>
<path d="M7.99246 22.638L12.0641 23.6932L12.1647 23.2661L8.09304 22.2108L8.47004 20.7536L1.38231 18.8943L0.477539 22.3616L7.56521 24.2208L7.99246 22.638Z" fill="white"/>
<path d="M9.67642 18.2159L13.3962 20.1757L13.4716 20.025L9.77699 18.0401L10.6315 16.432L4.14701 12.9899L2.3374 16.4069L8.8219 19.8491L9.67642 18.2159Z" fill="white"/>
<path d="M41.8477 44.1956L38.4798 39.4971L35.7905 41.4067L39.1584 46.1302L40.1387 45.4268L43.5317 50.1001L44.1097 49.6981L40.6916 45.0247L41.8477 44.1956Z" fill="white"/>
<path d="M37.7506 46.8839L35.4886 41.5574L32.6987 42.7383L34.9356 48.0649L35.7902 47.7131L38.1024 53.0899L38.9821 52.7131L36.6447 47.3362L37.7506 46.8839Z" fill="white"/>
<path d="M28.2754 49.1955L28.4765 43.4669L25.9882 43.3664L25.7871 49.1201H26.1893L26.0133 55.1251L27.446 55.1753L27.647 49.1704L28.2754 49.1955Z" fill="white"/>
<path d="M23.2737 48.7181L24.7566 43.1654L22.6202 42.6126L21.1373 48.1402L21.3384 48.1905L19.8052 54.0699L21.4389 54.497L22.9721 48.6428L23.2737 48.7181Z" fill="white"/>
<path d="M21.0872 41.9845L19.3781 41.08L17.292 45.0247L17.0658 45.4518L16.6888 46.1302L13.8486 51.507L15.5578 52.4115L18.5487 46.7583L21.0872 41.9845Z" fill="white"/>
<path d="M12.0142 30.8791L11.8383 29.9494L7.61582 30.8037L7.4399 29.8992L0.226562 31.2811L0.804648 34.271L8.01798 32.8891L7.79174 31.7082L12.0142 30.8791Z" fill="white"/>
<path d="M11.6369 26.6078L7.38934 26.5073L7.4396 25.3013L0.100572 25.0751L0 28.3917L7.33909 28.6178L7.36418 27.1857L11.6118 27.2861L11.6369 26.6078Z" fill="white"/>
<path d="M34.1313 13.216L35.8405 14.1205L37.9266 10.1758L41.3699 3.69345L39.6608 2.78894L36.6196 8.51754L34.1313 13.216Z" fill="white"/>
<path d="M40.9681 10.7285L37.2231 15.0501L38.9071 16.5074L42.6521 12.1607L42.4007 11.9597L46.397 7.41196L45.1151 6.28131L41.144 10.8542L40.9681 10.7285Z" fill="white"/>
<path d="M44.3858 14.02L39.7612 17.4119L41.2189 19.4219L45.8436 16.0049L45.4917 15.5024L50.3425 11.9849L49.488 10.804L44.6371 14.3466L44.3858 14.02Z" fill="white"/>
<path d="M47.7036 19.5727L53.1575 17.2109L52.68 16.1306L47.2261 18.4672L46.9496 17.8893L41.6968 20.2008L42.8026 22.7385L48.0806 20.4018L47.7036 19.5727Z" fill="white"/>
<path d="M49.2617 25.1505L49.0355 23.9948L54.7911 22.8892L54.6151 21.9847L48.8344 23.0651L48.6585 22.1606L43.0034 23.2913L43.5815 26.2811L49.2617 25.1505Z" fill="white"/>
<path d="M43.6321 26.6078L43.5566 29.9243L49.3373 30.0499L49.3625 28.6429L55.1683 28.8188L55.1934 28.1404L49.3876 27.9645L49.4127 26.7334L43.6321 26.6078Z" fill="white"/>
<path d="M43.5565 29.9997L42.6518 33.467L40.9175 36.7584L38.5298 39.4468L42.9031 43.2659L43.9084 42.1353L48.2314 45.9041L48.5079 45.5774L44.1849 41.8086L45.2656 40.5775L41.194 36.9846L46.0196 39.5473L46.8742 37.9142L51.9261 40.6026L52.0266 40.4267L46.9747 37.7383L47.8293 36.1303L43.0036 33.5675L48.2565 34.9243L48.6838 33.3414L54.2384 34.7986L54.3389 34.3715L48.7844 32.9142L49.1614 31.457L43.5565 29.9997Z" fill="white"/>
<path d="M85.1782 28.1907L92.7434 35.5273H86.8621L80.3525 28.869V35.5273H75.8535V21.7083H80.3525V27.6379L86.1584 21.7083H92.0145L85.1782 28.1907Z" fill="white"/>
<path d="M98.926 21.7083V29.7485C98.926 30.3766 99.127 30.9042 99.5543 31.2811C99.9816 31.658 100.535 31.8339 101.213 31.8339H107.27V21.7083H111.744V35.5273H108.276L107.622 33.7937C106.768 34.9494 105.712 35.5273 104.43 35.5273H100.183C98.6495 35.5273 97.3174 34.9997 96.1613 33.9696C95.0051 32.9143 94.4521 31.6832 94.4521 30.3264V21.6832H98.926V21.7083Z" fill="white"/>
<path d="M128.509 35.5273V27.3867C128.509 26.7585 128.307 26.2811 127.88 25.9043C127.478 25.5274 126.9 25.3264 126.221 25.3264H120.164V35.5273H115.69V21.7083H119.159L119.812 23.442C120.667 22.2862 121.697 21.7083 122.954 21.7083H127.277C128.81 21.7083 130.142 22.2359 131.273 23.2661C132.404 24.2711 132.957 25.4771 132.957 26.8842V35.5524H128.509V35.5273Z" fill="white"/>
<path d="M140.849 21.7083V29.7485C140.849 30.3766 141.05 30.9042 141.477 31.2811C141.904 31.658 142.457 31.8339 143.136 31.8339H149.193V21.7083H153.667V35.5273H150.199L149.545 33.7937C148.691 34.9494 147.635 35.5273 146.353 35.5273H142.106C140.572 35.5273 139.24 34.9997 138.084 33.9696C136.928 32.9143 136.375 31.6832 136.375 30.3264V21.6832H140.849V21.7083Z" fill="white"/>
<path d="M163.293 35.5273C161.76 35.5273 160.428 34.9997 159.297 33.9696C158.166 32.9645 157.613 31.7585 157.613 30.3515V21.6832H162.087V29.8239C162.087 30.452 162.288 30.9294 162.715 31.3062C163.117 31.6831 163.67 31.8841 164.374 31.8841H169.099V21.6832H173.573V29.8239C173.573 30.452 173.774 30.9294 174.201 31.3062C174.603 31.6831 175.181 31.8841 175.86 31.8841H180.585V21.6832H185.059V35.5022H181.59L180.937 33.7685C180.082 34.9243 179.052 35.5022 177.795 35.5022H174.854C173.145 35.5022 171.763 34.9495 170.733 33.8439C169.878 34.9495 168.848 35.5022 167.616 35.5022H163.293V35.5273Z" fill="white"/>
<path d="M187.145 22.2108C187.472 21.8842 187.899 21.7083 188.376 21.7083C188.879 21.7083 189.281 21.8842 189.633 22.2359C189.935 22.5374 190.111 22.9646 190.111 23.3917C190.111 23.8942 189.96 24.3213 189.608 24.648C189.256 24.9746 188.854 25.1505 188.376 25.1505C187.899 25.1505 187.497 24.9746 187.145 24.648C186.818 24.3213 186.642 23.8942 186.642 23.442C186.642 22.9395 186.818 22.5374 187.145 22.2108ZM189.331 22.4621C189.055 22.1857 188.753 22.0601 188.376 22.0601C187.999 22.0601 187.673 22.1857 187.421 22.4621C187.145 22.7385 187.019 23.04 187.019 23.4168C187.019 23.7937 187.145 24.1203 187.421 24.3716C187.698 24.6228 187.999 24.7736 188.376 24.7736C188.753 24.7736 189.08 24.648 189.331 24.3716C189.608 24.0952 189.734 23.7937 189.734 23.4168C189.734 23.0651 189.608 22.7385 189.331 22.4621ZM187.622 22.4621H188.527C188.728 22.4621 188.904 22.5123 189.03 22.6128C189.155 22.7133 189.206 22.8641 189.206 23.04C189.206 23.2661 189.105 23.4168 188.879 23.4922C189.005 23.5676 189.08 23.6178 189.13 23.6932C189.155 23.7686 189.181 23.8942 189.206 24.045V24.1455C189.231 24.2711 189.231 24.3465 189.256 24.3716H188.703C188.678 24.2962 188.653 24.2208 188.653 24.1203C188.653 23.9445 188.628 23.844 188.577 23.7937C188.527 23.7435 188.427 23.7183 188.276 23.7183H188.175V24.3967H187.597V22.4621H187.622ZM188.2 23.3163H188.326C188.552 23.3163 188.653 23.241 188.653 23.0902C188.653 22.9646 188.552 22.8892 188.326 22.8892H188.2V23.3163Z" fill="white"/>
</svg>
