<svg width="14" height="14" viewBox="0 0 14 14" fill="none" xmlns="http://www.w3.org/2000/svg">
<path d="M7.04919 2.09998C5.09216 2.09998 3.5 3.69213 3.5 5.64915C3.5 8.07787 6.67618 11.6434 6.81141 11.794C6.93842 11.9354 7.16019 11.9352 7.28698 11.794C7.4222 11.6434 10.5984 8.07787 10.5984 5.64915C10.5983 3.69213 9.00621 2.09998 7.04919 2.09998ZM7.04919 11.0909C5.98024 9.82114 4.13914 7.31603 4.13914 5.64919C4.13914 4.04455 5.44457 2.73912 7.04919 2.73912C8.65381 2.73912 9.95924 4.04455 9.95924 5.64917C9.95922 7.31609 8.11841 9.82074 7.04919 11.0909Z" fill="white"/>
<path d="M7.04934 3.86353C6.06471 3.86353 5.26367 4.66458 5.26367 5.64921C5.26367 6.63385 6.06473 7.4349 7.04934 7.4349C8.03395 7.4349 8.83499 6.63385 8.83499 5.64921C8.83499 4.66458 8.03395 3.86353 7.04934 3.86353ZM7.04934 6.79576C6.41712 6.79576 5.90282 6.28143 5.90282 5.64921C5.90282 5.017 6.41714 4.50267 7.04934 4.50267C7.68153 4.50267 8.19586 5.017 8.19586 5.64921C8.19586 6.28143 7.68153 6.79576 7.04934 6.79576Z" fill="white"/>
</svg>
