<svg width="20" height="20" viewBox="0 0 20 20" fill="none" xmlns="http://www.w3.org/2000/svg">
<path d="M19.1668 8.2987C19.1668 8.08758 18.996 7.91675 18.7849 7.91675H1.21545C1.00433 7.91675 0.833496 8.08758 0.833496 8.2987C0.833496 11.9679 3.09645 15.1148 6.29844 16.4273C6.22636 16.4967 6.18071 16.5934 6.18071 16.7015C6.18071 16.9126 6.35154 17.0834 6.56266 17.0834H9.61821H10.3821H13.4377C13.6488 17.0834 13.8196 16.9126 13.8196 16.7015C13.8196 16.5933 13.774 16.4967 13.7019 16.4273C16.9039 15.1148 19.1668 11.9679 19.1668 8.2987ZM10.3821 16.3195H9.61824C5.32359 16.3195 1.80627 12.9268 1.60636 8.68066H18.394C18.1941 12.9268 14.6767 16.3195 10.3821 16.3195Z" fill="#BABABA"/>
<path d="M6.01077 13.6952C5.06972 13.0637 4.3062 12.1958 3.80229 11.185C3.70865 10.9966 3.48077 10.9186 3.29017 11.0138C3.10143 11.1078 3.02459 11.3371 3.11898 11.5259C3.68144 12.6546 4.53412 13.6243 5.58485 14.3293C5.65048 14.3733 5.72435 14.3942 5.79747 14.3942C5.92057 14.3942 6.04142 14.3349 6.1149 14.2253C6.23231 14.0499 6.18569 13.8127 6.01077 13.6952Z" fill="#BABABA"/>
<path d="M5.41678 6.77092C5.41678 6.98204 5.58762 7.15287 5.79874 7.15287C6.00986 7.15287 6.18069 6.98204 6.18069 6.77092C6.18069 6.29722 6.0341 6.01037 5.91662 5.78023C5.81589 5.58254 5.73608 5.42699 5.73608 5.13681C5.73608 4.87198 5.79501 4.78472 5.89273 4.63998C6.01433 4.4602 6.18069 4.21441 6.18069 3.71533C6.18069 3.50421 6.00986 3.33337 5.79874 3.33337C5.58762 3.33341 5.41678 3.50425 5.41678 3.71537C5.41678 3.9802 5.35785 4.06746 5.26013 4.21219C5.13853 4.39198 4.97217 4.63776 4.97217 5.13685C4.97217 5.61054 5.11876 5.89739 5.23625 6.12753C5.33697 6.32519 5.41678 6.48073 5.41678 6.77092Z" fill="#BABABA"/>
<path d="M9.99979 6.77092C9.99979 6.98204 10.1706 7.15287 10.3817 7.15287C10.5929 7.15287 10.7637 6.98204 10.7637 6.77092C10.7637 6.29722 10.6171 6.01037 10.4996 5.78023C10.3989 5.58254 10.3191 5.42699 10.3191 5.13681C10.3191 4.87198 10.378 4.78472 10.4757 4.63998C10.5973 4.4602 10.7637 4.21441 10.7637 3.71533C10.7637 3.50421 10.5929 3.33337 10.3817 3.33337C10.1706 3.33341 9.99979 3.50425 9.99979 3.71537C9.99979 3.9802 9.94085 4.06746 9.84314 4.21219C9.72153 4.39198 9.55518 4.63776 9.55518 5.13685C9.55518 5.61054 9.70177 5.89739 9.81925 6.12753C9.91998 6.32519 9.99979 6.48073 9.99979 6.77092Z" fill="#BABABA"/>
<path d="M14.5833 6.77092C14.5833 6.98204 14.7541 7.15287 14.9652 7.15287C15.1764 7.15287 15.3472 6.98204 15.3472 6.77092C15.3472 6.29722 15.2006 6.01037 15.0831 5.78023C14.9824 5.58254 14.9026 5.42699 14.9026 5.13681C14.9026 4.87198 14.9615 4.78472 15.0592 4.63998C15.1808 4.4602 15.3472 4.21441 15.3472 3.71533C15.3472 3.50421 15.1764 3.33337 14.9652 3.33337C14.7541 3.33337 14.5833 3.50425 14.5833 3.71537C14.5833 3.9802 14.5244 4.06746 14.4266 4.21219C14.305 4.39198 14.1387 4.63776 14.1387 5.13685C14.1387 5.61054 14.2853 5.89739 14.4028 6.12753C14.5035 6.32519 14.5833 6.48073 14.5833 6.77092Z" fill="#BABABA"/>
</svg>
