<svg width="24" height="25" viewBox="0 0 24 25" fill="none" xmlns="http://www.w3.org/2000/svg">
<g clip-path="url(#clip0)">
<path d="M20.25 2.5C21.2446 2.5 22.1984 2.90522 22.9016 3.62651C23.6049 4.34781 24 5.32609 24 6.34615V18.6538C24 19.6739 23.6049 20.6522 22.9016 21.3735C22.1984 22.0948 21.2446 22.5 20.25 22.5H3.75C2.75544 22.5 1.80161 22.0948 1.09835 21.3735C0.395088 20.6522 0 19.6739 0 18.6538V6.34615C0 5.32609 0.395088 4.34781 1.09835 3.62651C1.80161 2.90522 2.75544 2.5 3.75 2.5H20.25ZM22.5 8.59385L12.381 14.7015C12.2853 14.7591 12.1784 14.7943 12.0679 14.8044C11.9574 14.8145 11.8461 14.7993 11.742 14.76L11.619 14.7015L1.5 8.59692V18.6538C1.5 19.2659 1.73705 19.8529 2.15901 20.2856C2.58097 20.7184 3.15326 20.9615 3.75 20.9615H20.25C20.8467 20.9615 21.419 20.7184 21.841 20.2856C22.2629 19.8529 22.5 19.2659 22.5 18.6538V8.59385ZM20.25 4.03846H3.75C3.15326 4.03846 2.58097 4.28159 2.15901 4.71437C1.73705 5.14715 1.5 5.73412 1.5 6.34615V6.81077L12 13.1462L22.5 6.80769V6.34615C22.5 5.73412 22.2629 5.14715 21.841 4.71437C21.419 4.28159 20.8467 4.03846 20.25 4.03846Z" fill="#E6E8EC"/>
</g>
<defs>
<clipPath id="clip0">
<rect width="24" height="24" fill="white" transform="translate(0 0.5)"/>
</clipPath>
</defs>
</svg>
