<svg width="20" height="20" viewBox="0 0 20 20" fill="none" xmlns="http://www.w3.org/2000/svg">
<path d="M19.6552 2.06897H0.344828C0.154483 2.06897 0 2.22311 0 2.4138V17.5862C0 17.7769 0.154483 17.931 0.344828 17.931H19.6552C19.8455 17.931 20 17.7769 20 17.5862V2.4138C20 2.22311 19.8455 2.06897 19.6552 2.06897ZM19.3103 17.2414H0.689655V2.75862H19.3103V17.2414Z" fill="white"/>
<path d="M5.51724 9.70275C6.5762 9.70275 7.43758 8.84137 7.43758 7.78275C7.43758 6.72344 6.5762 5.86206 5.51724 5.86206C4.45827 5.86206 3.59689 6.72344 3.59689 7.78241C3.59689 8.84137 4.45827 9.70275 5.51724 9.70275ZM5.51724 6.55172C6.19586 6.55172 6.74793 7.10413 6.74793 7.78241C6.74793 8.46068 6.19586 9.01309 5.51724 9.01309C4.83862 9.01309 4.28655 8.46103 4.28655 7.78275C4.28655 7.10447 4.83862 6.55172 5.51724 6.55172Z" fill="white"/>
<path d="M2.41386 15.8621C2.49455 15.8621 2.57593 15.8338 2.64144 15.7762L8.26662 10.8238L11.819 14.3759C11.9539 14.5107 12.1718 14.5107 12.3066 14.3759C12.4414 14.241 12.4414 14.0231 12.3066 13.8883L10.649 12.2307L13.8149 8.76379L17.698 12.3234C17.8383 12.4521 18.0566 12.4424 18.1852 12.3021C18.3139 12.1617 18.3046 11.9434 18.1639 11.8148L14.0259 8.02172C13.9583 7.95999 13.8683 7.9293 13.7777 7.93137C13.6863 7.93551 13.6001 7.97586 13.5383 8.04344L10.1611 11.7424L8.52558 10.1069C8.39662 9.97827 8.19041 9.97172 8.05386 10.0917L2.18593 15.2583C2.04282 15.3841 2.02903 15.6021 2.15489 15.7452C2.22317 15.8227 2.31834 15.8621 2.41386 15.8621Z" fill="white"/>
</svg>
