<svg width="282" height="342" viewBox="0 0 282 342" fill="none" xmlns="http://www.w3.org/2000/svg">
<path d="M172.032 228.606L165.653 209.766L163.678 210.421L170.058 229.261L162.708 231.799L173.902 264.587L189.943 259.09L178.749 226.302L172.032 228.606Z" fill="white"/>
<path d="M152.008 233.399L150.069 213.433L146.875 213.783L148.814 233.749L142.114 234.468L145.705 268.85L161.28 267.272L157.732 232.815L152.008 233.399Z" fill="white"/>
<path d="M131.702 233.841L134.264 213.682L129.81 213.104L127.323 233.307L121.711 232.66L117.717 267.05L132.013 268.722L136.007 234.333L131.702 233.841Z" fill="white"/>
<path d="M111.738 229.893L118.625 210.535L113.319 208.668L106.389 228.101L102.26 226.614L90.9328 259.363L103.214 263.662L114.616 230.956L111.738 229.893Z" fill="white"/>
<path d="M92.8298 221.868L103.909 204.233L98.1286 200.597L87.0492 218.232L84.474 216.645L66.1865 246.074L76.1452 252.322L94.4758 222.819L92.8298 221.868Z" fill="white"/>
<path d="M75.7299 209.502L90.5901 194.648L84.9681 189.009L70.0646 203.937L68.9655 202.904L44.5811 227.516L51.9956 234.888L76.4232 210.201L75.7299 209.502Z" fill="white"/>
<path d="M170.762 41.1018L166.707 39.6584L157.586 65.3047L169.867 69.6033L179.063 44.0001L176.068 42.9687L185.278 16.4765L179.972 14.6097L170.762 41.1018Z" fill="white"/>
<path d="M229.17 104.241L209.255 111.091L211.902 118.602L231.742 111.708L231.995 112.652L264.829 101.394L261.432 91.5555L228.641 102.739L229.17 104.241Z" fill="white"/>
<path d="M234.66 125.659L213.854 128.006L214.65 134.747L235.338 132.432L235.534 134.34L270.038 130.728L268.803 119.045L234.373 122.701L234.66 125.659Z" fill="white"/>
<path d="M235.059 147.428L214.605 145.192L213.96 150.802L234.414 153.039L234.079 156.036L268.476 160.04L270.064 147.096L235.593 143.049L235.059 147.428Z" fill="white"/>
<path d="M208.378 205.217L194.199 191.247L192.714 192.782L206.936 206.678L201.911 211.754L226.534 236.141L238.479 224.091L213.856 199.703L208.378 205.217Z" fill="white"/>
<path d="M191.09 219.267L180.523 202.496L179.76 202.954L190.284 219.799L182.968 224.35L201.334 253.701L216.815 243.991L198.449 214.641L191.09 219.267Z" fill="white"/>
<path d="M120.776 36.9725L123.476 64.2586L139.051 62.6805L136.382 35.5123L130.702 36.0219L127.84 8.84217L124.571 9.14858L127.433 36.3282L120.776 36.9725Z" fill="white"/>
<path d="M143.957 35.6975L140.594 62.7736L154.804 64.5957L158.167 37.5196L153.905 36.9538L157.098 9.4805L152.644 8.90309L149.45 36.3763L143.957 35.6975Z" fill="white"/>
<path d="M188.193 48.5732L173.737 71.5384L183.696 77.7866L198.152 54.8215L196.475 53.7532L211.385 29.6546L205.679 26.0612L190.769 50.1598L188.193 48.5732Z" fill="white"/>
<path d="M207.452 62.3845L188.309 81.5466L195.723 88.9187L214.791 69.7133L214.098 69.0138L234.274 48.753L228.577 43.0707L208.476 63.3748L207.452 62.3845Z" fill="white"/>
<path d="M200.539 95.0894L205.413 102.889L223.268 91.6588L225.159 90.457L228.296 88.4789L252.662 73.2294L247.745 65.5045L222.133 81.5304L200.539 95.0894Z" fill="white"/>
<path d="M211.394 161.985L209.983 166.156L229.251 172.694L227.808 176.747L260.523 188.156L265.285 174.552L232.527 163.217L230.662 168.522L211.394 161.985Z" fill="white"/>
<path d="M202.86 180.392L220.001 190.787L217.002 195.637L246.441 213.93L254.748 200.577L225.191 182.316L221.674 188.063L204.576 177.594L202.86 180.392Z" fill="white"/>
<path d="M79.1586 181.966L74.36 174.21L56.5047 185.44L56.43 185.397L27.1117 203.87L31.9533 211.551L57.844 195.387L79.1586 181.966Z" fill="white"/>
<path d="M45.2634 176.058L70.8335 167.188L67.4799 157.274L41.9098 166.144L42.3641 167.603L15.3033 176.809L17.8314 184.352L44.9355 175.071L45.2634 176.058Z" fill="white"/>
<path d="M39.1203 154.562L66.1223 151.505L64.7691 139.854L37.8101 142.837L38.1723 145.838L9.93845 148.783L10.6596 155.481L38.8933 152.537L39.1203 154.562Z" fill="white"/>
<path d="M38.6308 123.965L10.8097 120.667L10.164 126.277L38.0285 129.501L37.7258 132.617L64.7558 135.559L66.1508 122.603L39.1208 119.661L38.6308 123.965Z" fill="white"/>
<path d="M45.4843 97.4088L43.7367 102.682L17.5365 93.6382L16.1257 97.8095L42.2827 106.928L40.915 111.025L66.7843 119.778L71.3536 106.162L45.4843 97.4088Z" fill="white"/>
<path d="M71.9379 104.804L80.0527 91.44L56.7572 77.1926L53.2828 82.865L29.9989 68.4248L28.2832 71.2235L51.5671 85.6637L48.5677 90.5133L71.9379 104.804Z" fill="white"/>
<path d="M80.2689 91.0663L92.1386 78.973L107.05 69.7325L123.091 64.2357L114.31 38.3249L107.518 40.5862L98.8006 14.9115L96.7831 15.6413L105.544 41.2413L98.237 43.7037L106.414 68.0691L92.7833 46.2389L85.4242 50.865L71.0053 27.9814L70.2426 28.4386L84.6615 51.3221L77.2276 55.905L90.9332 77.7784L72.6255 59.7297L67.2231 65.286L47.891 46.2469L46.4491 47.708L65.7378 66.8217L60.7124 71.8977L80.2689 91.0663Z" fill="white"/>
<path d="M24.0156 322.925L43.5391 341.751H28.3349L11.576 324.566V341.751H0V306.172H11.576V321.457L26.5209 306.172H41.5521L24.0156 322.925Z" fill="white"/>
<path d="M59.3476 306.173V326.899C59.3476 328.539 59.8658 329.835 60.9889 330.785C62.1119 331.735 63.4941 332.253 65.3082 332.253H80.8577V306.173H92.3472V341.752H83.3629L81.7216 337.262C79.5619 340.284 76.7976 341.752 73.5149 341.752H62.6301C58.7427 341.752 55.2873 340.37 52.2637 337.78C49.3266 335.016 47.8582 331.907 47.8582 328.367V306.173H59.3476Z" fill="white"/>
<path d="M135.541 341.752V320.853C135.541 319.213 135.022 318.004 133.899 317.054C132.862 316.104 131.394 315.586 129.58 315.586H114.03V341.752H102.541V306.173H111.525L113.253 310.663C115.412 307.641 118.09 306.173 121.373 306.173H132.431C136.404 306.173 139.774 307.554 142.711 310.145C145.648 312.736 147.116 315.845 147.116 319.472V341.752H135.541Z" fill="white"/>
<path d="M167.244 306.173V326.899C167.244 328.539 167.762 329.835 168.885 330.785C170.008 331.735 171.391 332.253 173.205 332.253H188.754V306.173H200.244V341.752H191.26L189.618 337.262C187.458 340.284 184.694 341.752 181.411 341.752H170.527C166.639 341.752 163.184 340.37 160.16 337.78C157.223 335.016 155.755 331.907 155.755 328.367V306.173H167.244Z" fill="white"/>
<path d="M225.037 341.752C221.063 341.752 217.694 340.37 214.757 337.78C211.82 335.189 210.351 332.08 210.351 328.453V306.173H221.841V327.071C221.841 328.712 222.359 329.921 223.482 330.871C224.519 331.821 225.987 332.339 227.715 332.339H239.896V306.086H251.385V326.985C251.385 328.626 251.903 329.835 253.026 330.785C254.063 331.735 255.532 332.253 257.346 332.253H269.526V306H281.016V341.752H272.031L270.304 337.262C268.144 340.284 265.466 341.752 262.183 341.752H254.581C250.176 341.752 246.634 340.37 243.956 337.521C241.796 340.37 239.118 341.752 235.922 341.752H225.037Z" fill="white"/>
</svg>
