<svg width="24" height="25" viewBox="0 0 24 25" fill="none" xmlns="http://www.w3.org/2000/svg">
<path d="M21.984 22.484L21.984 22.484C22.2053 22.2626 22.2054 21.904 21.984 21.6827L15.9984 15.6971C17.23 14.2811 17.9834 12.4375 17.9834 10.4166C17.9833 5.9686 14.3648 2.35 9.91668 2.35C5.4686 2.35 1.85 5.9686 1.85 10.4167C1.85 14.8648 5.4686 18.4834 9.91668 18.4834C11.9375 18.4834 13.7811 17.73 15.1971 16.4984L21.1827 22.484C21.2933 22.5946 21.4386 22.65 21.5834 22.65C21.7282 22.65 21.8734 22.5946 21.984 22.484ZM9.91668 17.35C6.09409 17.35 2.98336 14.2397 2.98336 10.4167C2.98336 6.59371 6.09409 3.48332 9.91668 3.48332C13.7393 3.48332 16.85 6.59367 16.85 10.4167C16.85 14.2397 13.7393 17.35 9.91668 17.35Z" fill="white" stroke="white" stroke-width="0.3"/>
</svg>
