<svg width="16" height="16" viewBox="0 0 16 16" fill="none" xmlns="http://www.w3.org/2000/svg">
<path d="M11.1406 9.78125C10.446 9.78125 9.82885 10.1188 9.44427 10.6384L6.13325 8.94631C6.1888 8.75759 6.21875 8.55802 6.21875 8.35156C6.21875 8.07193 6.16393 7.80491 6.06467 7.56048L9.53483 5.47552C9.92202 5.92998 10.4982 6.21875 11.1406 6.21875C12.3037 6.21875 13.25 5.27248 13.25 4.10938C13.25 2.94627 12.3037 2 11.1406 2C9.97752 2 9.03125 2.94627 9.03125 4.10938C9.03125 4.3782 9.0819 4.63538 9.17398 4.87203L5.69516 6.96219C5.30825 6.52114 4.7408 6.24219 4.10938 6.24219C2.94627 6.24219 2 7.18845 2 8.35156C2 9.51467 2.94627 10.4609 4.10938 10.4609C4.81536 10.4609 5.44138 10.1123 5.82446 9.57814L9.12587 11.2653C9.06439 11.463 9.03125 11.673 9.03125 11.8906C9.03125 13.0537 9.97752 14 11.1406 14C12.3037 14 13.25 13.0537 13.25 11.8906C13.25 10.7275 12.3037 9.78125 11.1406 9.78125ZM11.1406 2.70312C11.916 2.70312 12.5469 3.33397 12.5469 4.10938C12.5469 4.88478 11.916 5.51562 11.1406 5.51562C10.3652 5.51562 9.73438 4.88478 9.73438 4.10938C9.73438 3.33397 10.3652 2.70312 11.1406 2.70312ZM4.10938 9.75781C3.33397 9.75781 2.70312 9.12697 2.70312 8.35156C2.70312 7.57616 3.33397 6.94531 4.10938 6.94531C4.88478 6.94531 5.51562 7.57616 5.51562 8.35156C5.51562 9.12697 4.88478 9.75781 4.10938 9.75781ZM11.1406 13.2969C10.3652 13.2969 9.73438 12.666 9.73438 11.8906C9.73438 11.1152 10.3652 10.4844 11.1406 10.4844C11.916 10.4844 12.5469 11.1152 12.5469 11.8906C12.5469 12.666 11.916 13.2969 11.1406 13.2969Z" fill="white"/>
</svg>
