<svg width="24" height="25" viewBox="0 0 24 25" fill="none" xmlns="http://www.w3.org/2000/svg">
<g clip-path="url(#clip0)">
<path d="M23.6326 2.55774C23.3396 2.1981 22.9 2 22.3945 2C22.1217 2 21.8328 2.0571 21.5357 2.16965L1.21672 9.86821C0.136357 10.2776 -0.00905496 10.8939 0.000414145 11.2248C0.00983637 11.5541 0.188484 12.1566 1.27593 12.5045L5.58507 14.0836L7.85611 19.2821C8.0844 20.0011 8.56142 20.5055 9.17025 20.6691C9.3106 20.7068 9.45391 20.7254 9.59824 20.7254C10.0927 20.7254 10.599 20.5076 11.0362 20.097L12.9177 18.3293L17.5086 21.4891C17.922 21.7947 18.3719 21.956 18.8106 21.956C19.701 21.9559 20.4111 21.3042 20.6198 20.2955L23.9429 4.22318C24.0794 3.56264 23.9692 2.97119 23.6326 2.55774ZM7.01317 13.8396L12.877 10.6951L8.79032 14.4438C8.64481 14.5772 8.56376 14.7652 8.56353 14.9612C8.56325 14.9684 8.56236 14.9754 8.56231 14.9827L8.5482 17.3533L7.01317 13.8396ZM10.0733 19.072C10.03 19.1127 9.98652 19.1485 9.94358 19.1797L9.96078 16.2939L11.7323 17.5133L10.0733 19.072ZM22.5657 3.9384L19.2426 20.0106C19.2091 20.1727 19.0999 20.5497 18.8105 20.5497C18.6754 20.5497 18.5077 20.4801 18.3385 20.3537C18.3312 20.3483 18.3239 20.3431 18.3164 20.3379L13.2552 16.8543C13.2545 16.8538 13.2538 16.8534 13.2531 16.8529L10.3916 14.8833L17.9507 7.94945C18.2119 7.70987 18.2539 7.31334 18.0488 7.02429C17.8436 6.73525 17.4554 6.64412 17.143 6.81162L6.05464 12.7579L1.7454 11.1788C1.74226 11.1776 1.73912 11.1765 1.73593 11.1754L22.034 3.48473C22.205 3.4199 22.3244 3.4063 22.3945 3.4063C22.4292 3.4063 22.5131 3.41015 22.5421 3.44577C22.5793 3.49138 22.626 3.6465 22.5657 3.9384Z" fill="#E6E8EC"/>
</g>
<defs>
<clipPath id="clip0">
<rect width="24" height="24" fill="white" transform="translate(0 0.5)"/>
</clipPath>
</defs>
</svg>
