<svg width="24" height="25" viewBox="0 0 24 25" fill="none" xmlns="http://www.w3.org/2000/svg">
<path d="M23.5043 5.97302C23.1801 4.56339 22.2242 3.45357 21.0103 3.07658C19.2103 2.51628 12.7328 2.5 12 2.5C11.2672 2.5 4.78967 2.51628 2.99011 3.07637C1.77576 3.45357 0.819946 4.56339 0.49585 5.97239C0.00567627 8.09794 0 12.3213 0 12.5C0 12.6787 0.00567627 16.9021 0.495667 19.027C0.819946 20.4366 1.77576 21.5464 2.98975 21.9234C4.78967 22.4837 11.2672 22.5 12 22.5C12.7328 22.5 19.2103 22.4837 21.0099 21.9236C22.2242 21.5464 23.1801 20.4366 23.5042 19.0276C23.9943 16.9021 24 12.6787 24 12.5C24 12.3213 23.9943 8.09794 23.5043 5.97302ZM22.1451 18.6102C21.9498 19.46 21.3746 20.1288 20.6442 20.3556C19.2729 20.7825 13.9395 20.8762 12 20.8762C10.0607 20.8762 4.72723 20.7825 3.35541 20.3554C2.62537 20.1288 2.05042 19.46 1.85468 18.6096C1.41174 16.6894 1.40625 12.5417 1.40625 12.5C1.40625 12.4583 1.41138 8.31254 1.85486 6.38976C2.05023 5.54 2.62537 4.87124 3.35577 4.64437C4.72705 4.21748 10.0607 4.12382 12 4.12382C13.9393 4.12382 19.2729 4.21748 20.6446 4.64458C21.3746 4.87124 21.9498 5.54 22.1453 6.39039C22.5883 8.31064 22.5938 12.4583 22.5938 12.5C22.5938 12.5417 22.5886 16.6875 22.1451 18.6102Z" fill="white"/>
<path d="M8.98535 17.0612L17.0156 12.4885L8.98535 7.91541V17.0612ZM10.3916 10.3346L14.1738 12.4885L10.3916 14.6422V10.3346Z" fill="white"/>
</svg>
